<svg viewBox="0 0 24 24" xmlns="http://www.w3.org/2000/svg" fill="currentColor">
  <path d="M3 9L3.6 8.2C3.297 7.973 2.892 7.936 2.553 8.106 2.214 8.275 2 8.621 2 9h1zm0 6H2c0 .379.214.725.553.894.339.17.744.133 1.047-.094L3 15zm18-6h1c0-.379-.214-.725-.553-.894-.339-.17-.744-.133-1.047.094L21 9zm0 6l-.6.8c.303.227.708.264 1.047.094.339-.17.553-.516.553-.894h-1zM2.4 9.8l4 3 1.2-1.6-4-3-1.2 1.6zm4 1.4l-4 3 1.2 1.6 4-3-1.2-1.6zM4 15V9H2v6h2zm16.4-6.8l-4 3 1.2 1.6 4-3-1.2-1.6zm-4 4l4 3 1.2-1.6-4-3-1.2 1.6zM22 15V9h-2v6h2zm-6-3a4 4 0 0 1-4 4v2a6 6 0 0 0 6-6h-2zm-8 0a4 4 0 0 1 4-4V6a6 6 0 0 0-6 6h2zm4-4a4 4 0 0 1 4 4h2a6 6 0 0 0-6-6v2zm0 8a4 4 0 0 1-4-4H6a6 6 0 0 0 6 6v-2zm3.85-6.765L9.234 15.85l1.414 1.415 6.616-6.616-1.414-1.414zM13.35 6.735 6.734 13.35l1.414 1.415 6.616-6.616-1.414-1.414z"/>
  <path d="M16.4 12.8L20.4 15.8L21.6 14.2L17.6 11.2L16.4 12.8Z"/>
</svg>
