<svg xmlns="http://www.w3.org/2000/svg" viewBox="0 0 1500 1500">
  <path
    fill="#ffffff"
    d="M625 1381 c-3 -6 -31 -24 -63 -42 -31 -18 -58 -33 -60 -34 -1 -1 4
  -15 13 -31 20 -38 19 -51 -3 -57 -11 -2 -21 -14 -25 -26 -4 -17 -1 -21 19 -21
  l24 0 0 -263 c0 -195 -3 -266 -12 -275 -10 -10 -6 -18 17 -37 37 -30 43 -30
  80 0 27 22 28 25 13 42 -12 14 -16 43 -17 123 -2 105 -2 106 28 134 26 25 33
  27 46 16 14 -11 15 -51 13 -319 -2 -168 -7 -314 -12 -324 -6 -13 -4 -17 10
  -17 10 0 28 -10 41 -22 l23 -22 55 54 55 54 0 -84 c-1 -47 -7 -103 -15 -125
  -8 -21 -12 -42 -9 -45 3 -3 20 11 38 31 l33 35 26 -20 c33 -24 44 -16 22 17
  -13 21 -15 54 -13 228 2 112 7 211 11 221 7 13 2 18 -25 23 -18 4 -50 16 -71
  26 -35 18 -39 18 -62 3 l-25 -16 0 150 c0 118 3 154 15 165 15 16 10 27 -14
  27 -8 0 -25 10 -38 22 l-23 22 -48 -47 c-26 -26 -51 -47 -54 -47 -4 0 -6 61
  -6 135 l1 135 32 0 c24 0 35 6 43 25 11 24 11 25 -29 25 -23 0 -41 5 -43 13
  -12 45 -23 97 -20 97 2 0 22 -10 45 -22 l42 -21 28 34 c34 41 36 53 9 44 -12
  -4 -31 0 -45 9 -28 18 -41 20 -50 7z m205 -821 l40 -20 0 -103 c0 -100 -1
  -104 -27 -129 -24 -23 -31 -25 -45 -14 -16 11 -18 31 -18 150 0 75 2 136 5
  136 3 0 24 -9 45 -20z"
  />
</svg>
